<svg width="23" height="26" viewBox="0 0 23 26" fill="none" xmlns="http://www.w3.org/2000/svg">
<path d="M2.96412 24.86L21.439 14.5141C21.7104 14.3621 21.9364 14.1405 22.0937 13.8721C22.2511 13.6037 22.334 13.2982 22.334 12.9871C22.334 12.676 22.2511 12.3706 22.0937 12.1022C21.9364 11.8338 21.7104 11.6122 21.439 11.4602L2.96412 1.11416C2.65326 0.940052 2.29667 0.86498 1.942 0.898976C1.58733 0.932972 1.25149 1.07442 0.979361 1.3044C0.707235 1.53439 0.511793 1.84196 0.419157 2.186C0.326521 2.53004 0.341106 2.89416 0.460964 3.22969L3.94565 12.987L0.460963 22.7446C0.392369 22.9357 0.357182 23.1371 0.356946 23.3401C0.358682 23.6448 0.439815 23.9438 0.592343 24.2075C0.744874 24.4712 0.963527 24.6906 1.22673 24.8441C1.48994 24.9975 1.7886 25.0797 2.09326 25.0825C2.39791 25.0853 2.69804 25.0086 2.96401 24.86L2.96412 24.86ZM5.49156 13.8621L11.8749 13.8621C12.107 13.8621 12.3295 13.77 12.4936 13.6059C12.6577 13.4418 12.7499 13.2192 12.7499 12.9871C12.7499 12.7551 12.6577 12.5325 12.4936 12.3684C12.3295 12.2043 12.107 12.1121 11.8749 12.1121L5.49156 12.1121L2.1099 2.64158L20.5841 12.9871L2.10935 23.3323L5.49156 13.8621Z" fill="white"/>
</svg>
