<?xml version="1.0" standalone="no"?>
<!DOCTYPE svg PUBLIC "-//W3C//DTD SVG 20010904//EN"
 "http://www.w3.org/TR/2001/REC-SVG-20010904/DTD/svg10.dtd">
<svg version="1.0" xmlns="http://www.w3.org/2000/svg"
 width="920.000000pt" height="597.000000pt" viewBox="0 0 920.000000 597.000000"
 preserveAspectRatio="xMidYMid meet">

<g transform="translate(0.000000,597.000000) scale(0.100000,-0.100000)"
fill="#000000" stroke="none">
<path d="M4380 5780 c-92 -9 -279 -38 -291 -46 -5 -3 -9 -1 -9 4 0 15 -33 24
-40 11 -4 -6 -36 -19 -71 -28 -57 -14 -66 -20 -81 -51 -23 -49 -47 -198 -59
-375 -6 -82 -13 -179 -17 -215 l-7 -65 -51 -5 c-47 -5 -104 -31 -104 -48 0 -4
-18 -83 -40 -177 -72 -307 -129 -456 -277 -725 -132 -241 -177 -335 -217 -449
-39 -111 -73 -262 -79 -352 -3 -31 -8 -62 -11 -68 -4 -6 -2 -11 3 -11 6 0 11
-11 11 -25 0 -14 -4 -25 -10 -25 -5 0 -10 -11 -10 -25 0 -14 4 -25 10 -25 5 0
9 -17 9 -37 -3 -88 3 -153 13 -153 6 0 8 -14 4 -37 -5 -29 -4 -34 4 -23 9 12
11 8 8 -17 -3 -19 0 -30 5 -26 6 4 8 -5 5 -21 -3 -15 -3 -24 0 -21 3 3 20 -39
38 -93 37 -113 68 -178 204 -422 175 -315 230 -471 296 -840 27 -153 36 -184
56 -196 11 -6 11 -5 0 8 -14 17 -53 220 -41 212 4 -2 13 -28 19 -57 14 -67 43
-115 75 -123 55 -14 55 -14 55 227 0 122 -2 220 -4 218 -3 -2 -6 -37 -7 -76
-1 -40 -5 -70 -9 -68 -4 3 -6 16 -5 30 2 14 -1 27 -5 30 -5 3 -7 -3 -5 -13 2
-10 -2 -19 -10 -19 -7 0 -10 8 -7 21 4 21 4 21 -12 1 -12 -14 -14 -15 -10 -4
3 10 0 20 -7 25 -8 5 -10 3 -4 -6 6 -9 4 -11 -4 -6 -7 5 -10 15 -7 23 4 9 2
11 -6 7 -7 -5 -9 -2 -5 9 4 11 2 14 -7 11 -7 -3 -19 2 -26 11 -7 8 -9 15 -5
15 4 0 2 7 -5 15 -7 8 -16 13 -20 10 -5 -3 -6 5 -3 17 3 13 2 19 -3 15 -4 -4
-22 36 -40 90 -17 54 -35 107 -39 118 -4 11 7 -5 25 -35 17 -30 45 -70 63 -88
34 -36 160 -105 171 -95 3 4 6 27 7 52 0 44 17 106 18 71 1 -16 193 -118 298
-159 250 -97 603 -116 880 -46 176 45 443 153 443 180 0 8 5 15 11 15 6 0 8
-7 5 -16 -3 -9 -6 -25 -6 -37 0 -16 -3 -18 -9 -9 -7 11 -32 3 -122 -37 -157
-69 -336 -127 -449 -145 -121 -20 -344 -20 -478 0 -118 17 -308 80 -466 154
-58 26 -107 46 -110 42 -3 -3 -6 -17 -6 -32 0 -17 6 -26 18 -27 9 -1 80 -26
158 -56 77 -30 183 -66 235 -79 l94 -23 -257 -3 -258 -2 0 -200 c0 -179 -2
-200 -17 -209 -16 -9 -16 -10 4 -11 27 0 27 1 59 -415 4 -53 20 -197 40 -365
3 -31 12 -63 18 -72 10 -14 134 -59 154 -57 4 1 14 1 22 0 13 -1 13 -2 0 -11
-12 -8 -9 -10 13 -10 15 0 27 4 27 9 0 5 26 1 58 -9 102 -32 293 -52 442 -46
74 3 154 5 177 5 46 0 190 23 270 44 32 9 57 10 67 5 18 -10 56 -2 56 12 0 5
-6 7 -14 4 -8 -3 -17 -1 -21 5 -3 7 2 11 14 11 10 0 22 6 24 13 4 8 6 7 6 -4
1 -13 10 -14 69 -7 38 5 72 15 78 24 21 27 34 130 54 429 33 492 30 471 57
444 6 -6 23 -9 39 -6 l29 4 -31 2 c-47 2 -57 20 -46 83 6 32 10 42 11 26 1
-24 5 -28 31 -28 20 0 34 8 45 23 15 23 55 233 55 289 0 16 14 83 30 150 32
124 35 177 4 69 -9 -34 -20 -61 -25 -61 -4 0 -6 -9 -4 -20 2 -11 -1 -20 -6
-20 -5 0 -9 6 -8 13 1 6 1 19 0 27 -1 12 -4 11 -12 -3 -6 -9 -14 -15 -18 -12
-15 9 -31 -19 -19 -35 8 -12 9 -12 4 2 -3 10 -1 20 4 23 6 4 10 -2 10 -13 0
-21 -33 -56 -43 -45 -4 3 -7 -1 -7 -10 0 -9 -4 -19 -10 -22 -6 -4 -7 2 -1 17
5 13 14 22 21 20 6 -1 8 3 4 9 -4 8 -3 9 4 5 17 -10 15 -1 -4 14 -12 11 -15
11 -12 -1 2 -8 -2 -13 -8 -12 -6 1 -11 -3 -12 -10 -1 -7 -5 -31 -8 -55 -3 -23
-10 -44 -14 -47 -5 -3 -6 12 -3 32 2 21 0 63 -5 93 l-10 55 -1 -72 -1 -73
-236 0 c-221 0 -278 8 -187 25 66 12 194 56 189 64 -8 12 121 64 135 55 8 -5
9 -3 4 6 -6 10 -4 12 9 7 11 -5 15 -3 10 5 -5 7 -2 9 8 5 9 -3 26 2 38 10 23
16 31 12 43 -22 6 -15 86 30 144 80 28 24 52 42 55 40 3 -3 5 1 5 7 2 29 139
312 205 423 144 242 200 368 243 543 18 76 30 89 41 45 20 -77 -89 -355 -243
-621 -114 -198 -161 -304 -217 -492 -38 -128 -94 -358 -100 -415 -3 -27 7 6
23 75 37 161 105 402 136 485 14 36 47 109 75 163 55 108 234 431 248 447 5 6
6 17 4 24 -3 8 0 11 7 7 7 -5 9 -1 4 10 -5 13 -3 15 7 9 10 -6 12 -4 7 8 -3
10 -2 17 3 17 5 0 6 7 3 17 -5 12 -3 14 7 8 10 -6 12 -4 7 8 -4 10 -2 17 4 17
6 0 9 7 5 15 -3 8 -1 15 5 15 6 0 9 7 5 15 -3 8 -2 15 2 15 21 0 47 148 46
258 l0 112 55 1 56 2 -50 6 c-55 7 -75 16 -75 34 0 8 19 11 65 9 42 -3 65 0
65 7 0 7 -25 11 -65 11 -61 0 -65 1 -64 23 0 12 3 16 6 10 3 -9 26 -13 65 -13
80 0 76 24 -5 28 -63 3 -62 1 -47 84 9 47 7 73 -11 160 -43 210 -92 332 -233
578 -171 300 -215 410 -306 762 -28 106 -53 201 -56 211 -3 10 -20 27 -37 38
-35 21 -107 26 -107 7 0 -6 3 -8 7 -5 3 4 13 1 22 -7 20 -17 61 -27 61 -15 0
5 -11 9 -24 9 -14 0 -27 4 -30 9 -3 4 7 6 22 3 31 -5 64 -31 57 -43 -3 -4 2
-23 10 -41 8 -18 42 -129 75 -247 92 -324 149 -461 281 -677 85 -140 155 -300
164 -377 2 -23 9 -82 15 -132 15 -131 20 -366 9 -473 -22 -228 -120 -498 -264
-732 -63 -102 -131 -175 -235 -254 -61 -46 -63 -47 -30 -12 23 25 29 35 16 30
-14 -5 -17 -4 -12 5 4 6 15 9 25 6 12 -3 32 12 67 52 70 81 93 112 71 94 -29
-23 -19 -1 21 48 124 150 233 371 272 556 8 33 17 65 21 70 15 20 21 70 26
215 15 404 -129 783 -399 1054 -89 89 -91 91 -22 16 83 -89 147 -174 147 -196
0 -7 4 -11 8 -9 4 3 10 -2 13 -11 3 -8 2 -13 -3 -9 -5 3 6 -25 26 -63 19 -37
36 -78 38 -92 2 -14 15 -57 29 -97 21 -57 24 -76 16 -95 -8 -18 -6 -51 10
-138 66 -362 17 -648 -162 -953 -15 -26 -25 -47 -22 -47 2 0 -4 -10 -16 -22
-11 -12 -20 -28 -20 -35 0 -8 -5 -11 -12 -7 -6 4 -8 3 -5 -3 4 -6 0 -14 -9
-17 -8 -3 -13 -10 -10 -15 3 -5 -30 -51 -75 -103 l-80 -93 75 78 c81 84 177
220 232 330 40 78 100 250 110 315 9 55 18 59 43 19 19 -31 19 -36 5 -98 -39
-172 -101 -315 -209 -479 -110 -169 -225 -287 -372 -385 -40 -26 -70 -51 -68
-56 3 -4 0 -11 -6 -15 -8 -4 -9 -3 -5 4 10 16 1 15 -35 -3 -16 -9 -28 -19 -25
-23 2 -4 -3 -8 -12 -9 -9 0 -51 -15 -92 -33 -41 -17 -117 -44 -169 -59 -52
-16 -88 -31 -80 -34 8 -3 -4 -5 -26 -4 -75 2 -146 -3 -142 -10 3 -5 -79 -5
-181 -2 -202 6 -275 19 -439 81 -45 16 -87 27 -94 23 -8 -5 -10 -4 -5 3 4 7
-16 23 -52 41 -117 59 -324 206 -386 274 -40 45 -186 240 -186 250 0 4 22 -18
49 -50 54 -64 177 -184 261 -255 160 -133 360 -229 605 -290 78 -19 118 -22
300 -22 198 -1 216 1 317 27 235 61 434 169 600 325 38 36 79 79 90 96 l21 31
-31 -33 c-34 -36 -48 -41 -38 -15 6 15 3 14 -16 -3 -13 -11 -33 -21 -46 -22
-21 -1 -22 1 -11 16 7 9 -1 4 -19 -12 -34 -32 -44 -48 -14 -25 10 8 0 -3 -22
-23 -23 -21 -45 -38 -51 -38 -5 0 4 12 20 26 l30 26 -32 -22 c-18 -11 -32 -26
-30 -32 1 -6 -4 -13 -12 -16 -9 -3 -11 0 -6 9 5 8 4 11 -1 6 -5 -5 -9 -14 -9
-20 0 -5 -6 -12 -14 -15 -9 -3 -11 0 -6 9 5 8 4 11 -1 6 -5 -5 -9 -14 -9 -20
0 -29 -275 -147 -435 -186 -294 -73 -671 -17 -946 141 -311 178 -509 420 -634
774 -35 101 -54 134 -75 134 -8 0 -15 7 -15 16 0 8 -4 13 -9 10 -11 -7 -15 14
-32 142 -14 108 -6 316 15 407 27 118 27 123 11 82 -49 -127 -65 -358 -41
-593 22 -207 53 -319 136 -482 136 -266 338 -469 621 -621 52 -28 91 -51 87
-51 -23 0 -284 143 -349 192 -73 55 -239 222 -239 241 0 4 -18 34 -39 66 -84
123 -186 301 -247 428 -74 157 -87 219 -87 433 0 305 54 472 296 909 146 264
194 392 272 726 36 155 56 201 81 191 7 -3 15 -2 18 1 9 10 55 12 60 4 3 -4 7
-121 10 -260 2 -139 6 -254 8 -257 3 -2 22 5 44 15 79 38 301 125 364 142 36
10 57 18 48 18 -10 1 -18 5 -18 10 0 11 36 21 75 20 l30 -1 -35 -14 -35 -14
35 6 c121 20 169 24 290 23 122 0 196 -6 300 -23 29 -5 31 -5 13 3 -32 15 -28
21 12 21 32 0 35 -2 26 -18 -7 -13 -6 -19 2 -19 26 0 200 -65 331 -122 77 -34
141 -59 143 -57 11 10 13 223 4 376 -12 219 -71 664 -102 775 -17 59 -65 102
-125 110 -27 3 -61 13 -77 21 -26 15 -53 11 -42 -5 2 -5 -12 -3 -33 4 -101 35
-191 45 -394 43 -112 0 -237 -4 -278 -8z m615 -1120 c3 -6 -1 -7 -9 -4 -18 7
-21 14 -7 14 6 0 13 -4 16 -10z m-820 -18 c-6 -5 -30 -14 -55 -21 -25 -7 -102
-36 -173 -64 -70 -27 -129 -48 -131 -46 -2 2 -6 29 -10 61 l-6 56 108 7 c59 3
114 8 122 9 33 8 153 5 145 -2z m1251 -8 c-3 -9 -6 -44 -6 -79 l0 -64 -82 35
c-46 20 -128 53 -183 73 l-100 36 170 5 c94 3 178 7 189 8 13 1 16 -3 12 -14z
m561 -1306 l1 -103 -10 87 c-9 76 -7 118 5 118 2 0 4 -46 4 -102z m156 27 c3
-41 2 -60 -3 -45 -8 25 -13 127 -6 119 2 -2 6 -35 9 -74z m-76 -267 c-3 -8 -6
-5 -6 6 -1 11 2 17 5 13 3 -3 4 -12 1 -19z m-20 -125 c-3 -10 -5 -2 -5 17 0
19 2 27 5 18 2 -10 2 -26 0 -35z m-10 -65 c-3 -7 -5 -2 -5 12 0 14 2 19 5 13
2 -7 2 -19 0 -25z m-10 -40 c-3 -8 -6 -5 -6 6 -1 11 2 17 5 13 3 -3 4 -12 1
-19z m-2658 -593 c58 -99 111 -200 111 -212 0 -4 -24 37 -54 92 -29 55 -71
130 -94 167 -46 74 -92 163 -92 175 0 4 18 -23 38 -62 21 -38 62 -110 91 -160z
m2333 -102 c-26 -35 -102 -110 -102 -99 0 8 110 126 117 126 2 0 -5 -12 -15
-27z m-132 -126 c0 -2 -12 -14 -27 -28 l-28 -24 24 28 c23 25 31 32 31 24z
m-135 -113 c-26 -20 -55 -36 -55 -30 0 5 63 46 70 46 3 -1 -4 -8 -15 -16z
m-1531 -93 c20 -17 217 -98 293 -120 160 -48 381 -68 548 -51 204 21 344 59
513 141 78 38 113 49 140 47 37 -3 37 -3 -21 -21 -32 -10 -94 -35 -138 -57
-44 -21 -83 -39 -87 -39 -4 -1 -32 -8 -62 -17 -254 -75 -541 -98 -725 -60 -95
20 -203 49 -264 71 -63 23 -267 117 -279 129 -9 9 70 -13 82 -23z m201 -62
c22 -10 29 -16 15 -13 -28 7 -80 33 -65 33 6 0 28 -9 50 -20z m1065 11 c-8 -5
-19 -10 -25 -10 -5 0 -3 5 5 10 8 5 20 10 25 10 6 0 3 -5 -5 -10z m-50 -20
c-8 -5 -22 -9 -30 -9 -10 0 -8 3 5 9 27 12 43 12 25 0z m-75 -25 c-16 -8 -37
-14 -45 -14 -8 0 1 7 20 14 46 18 64 17 25 0z m-1165 -10 c14 -8 21 -14 15
-14 -5 0 -21 6 -35 14 -14 8 -20 14 -15 14 6 0 21 -6 35 -14z m397 -11 c-3 -3
-12 -4 -19 -1 -8 3 -5 6 6 6 11 1 17 -2 13 -5z m-337 -14 c8 -5 11 -10 5 -10
-5 0 -17 5 -25 10 -8 5 -10 10 -5 10 6 0 17 -5 25 -10z m377 4 c-3 -3 -12 -4
-19 -1 -8 3 -5 6 6 6 11 1 17 -2 13 -5z m560 -10 c-3 -3 -12 -4 -19 -1 -8 3
-5 6 6 6 11 1 17 -2 13 -5z m-887 -14 c8 -5 11 -10 5 -10 -5 0 -17 5 -25 10
-8 5 -10 10 -5 10 6 0 17 -5 25 -10z m1573 -10 c-3 -12 -8 -19 -11 -16 -5 6 5
36 12 36 2 0 2 -9 -1 -20z m-880 3 c-29 -2 -78 -2 -110 0 -32 2 -8 3 52 3 61
0 87 -1 58 -3z m860 -57 c-10 -13 -20 -22 -22 -20 -4 4 29 44 36 44 2 0 -4
-11 -14 -24z m-1916 -8 c-3 -8 -6 -5 -6 6 -1 11 2 17 5 13 3 -3 4 -12 1 -19z
m983 -48 c0 -5 -10 -10 -22 -10 -19 0 -20 2 -8 10 19 13 30 13 30 0z m47 -6
c-3 -3 -12 -4 -19 -1 -8 3 -5 6 6 6 11 1 17 -2 13 -5z m-567 -1258 c0 -2 -7
-7 -16 -10 -8 -3 -12 -2 -9 4 6 10 25 14 25 6z"/>
<path d="M4395 4596 c-99 -17 -222 -49 -295 -77 -76 -29 -232 -107 -250 -126
-8 -8 35 10 95 40 237 118 419 162 670 161 178 0 289 -17 440 -66 88 -28 275
-114 345 -159 l35 -22 -30 27 c-82 71 -287 161 -465 203 -131 31 -415 41 -545
19z"/>
<path d="M4390 4483 c-118 -20 -309 -85 -405 -138 -167 -91 -356 -250 -444
-374 -39 -55 -16 -33 47 43 194 236 504 410 822 461 224 36 489 5 700 -81 246
-100 395 -213 583 -444 l29 -35 -19 34 c-28 53 -198 226 -288 293 -155 116
-381 209 -590 243 -113 19 -323 18 -435 -2z"/>
<path d="M4558 4463 c6 -2 18 -2 25 0 6 3 1 5 -13 5 -14 0 -19 -2 -12 -5z"/>
<path d="M4638 4463 c7 -3 16 -2 19 1 4 3 -2 6 -13 5 -11 0 -14 -3 -6 -6z"/>
<path d="M4450 4403 c-414 -60 -760 -301 -959 -668 -130 -238 -169 -616 -94
-895 75 -279 246 -542 424 -652 25 -15 48 -23 53 -18 10 10 36 2 36 -11 0 -5
-8 -9 -17 -9 -17 -1 -17 -1 0 -11 9 -6 14 -15 11 -21 -4 -7 -2 -8 4 -4 12 7
56 -17 47 -26 -8 -8 202 -104 275 -126 136 -41 232 -55 375 -56 108 0 153 4
198 18 31 9 55 21 52 26 -3 4 2 11 11 14 11 4 15 2 11 -8 -5 -12 3 -12 56 0
59 14 83 24 59 24 -7 0 -12 5 -12 10 0 14 27 13 32 -1 10 -29 288 108 394 193
406 326 565 860 407 1362 -137 436 -527 771 -988 851 -81 14 -299 19 -375 8z
m152 -60 c-2 -17 1 -34 7 -38 7 -4 11 8 11 35 0 39 1 41 28 38 l27 -3 6 -130
c4 -94 2 -133 -6 -140 -6 -5 -10 -17 -8 -25 3 -9 1 -11 -4 -4 -4 6 -16 13 -25
17 -15 5 -18 21 -20 104 l-2 98 -3 -98 c-3 -70 -7 -96 -15 -91 -7 5 -9 2 -5
-9 3 -9 1 -19 -5 -23 -7 -5 -8 -2 -3 6 6 10 4 12 -8 7 -9 -3 -18 0 -21 9 -3 9
-10 12 -16 9 -11 -7 -14 175 -3 238 5 35 8 38 37 35 28 -3 31 -6 28 -35z
m-102 17 c0 -5 -7 -10 -15 -10 -8 0 -15 5 -15 10 0 6 7 10 15 10 8 0 15 -4 15
-10z m260 0 c0 -5 -6 -10 -14 -10 -8 0 -18 5 -21 10 -3 6 3 10 14 10 12 0 21
-4 21 -10z m-385 -20 c-3 -5 -13 -10 -21 -10 -8 0 -14 5 -14 10 0 6 9 10 21
10 11 0 17 -4 14 -10z m510 0 c-3 -5 -13 -10 -21 -10 -8 0 -14 5 -14 10 0 6 9
10 21 10 11 0 17 -4 14 -10z m-637 -31 c-2 -6 -8 -10 -13 -10 -5 0 -11 4 -13
10 -2 6 4 11 13 11 9 0 15 -5 13 -11z m760 0 c-2 -6 -8 -10 -13 -10 -5 0 -11
4 -13 10 -2 6 4 11 13 11 9 0 15 -5 13 -11z m-878 -44 c0 -8 -7 -15 -15 -15
-16 0 -20 12 -8 23 11 12 23 8 23 -8z m998 -3 c2 -7 -3 -12 -12 -12 -9 0 -16
7 -16 16 0 17 22 14 28 -4z m-1034 -161 c36 -63 66 -121 66 -129 0 -9 -9 -12
-27 -10 -24 3 -38 20 -95 116 -38 62 -68 116 -68 121 0 11 43 30 52 22 4 -3
36 -58 72 -120z m1146 111 l22 -17 -63 -108 c-34 -59 -66 -107 -71 -107 -5 0
-7 -3 -5 -7 3 -5 -8 -9 -24 -10 -37 -3 -39 23 -5 81 91 158 108 186 115 186 5
0 19 -8 31 -18z m-1335 -71 c7 -12 -12 -24 -25 -16 -11 7 -4 25 10 25 5 0 11
-4 15 -9z m1439 3 c18 -7 12 -24 -10 -24 -8 0 -14 7 -14 15 0 17 2 18 24 9z
m-1539 -83 c7 -12 -12 -24 -25 -16 -11 7 -4 25 10 25 5 0 11 -4 15 -9z m1639
3 c18 -7 12 -24 -10 -24 -8 0 -14 7 -14 15 0 17 2 18 24 9z m-1729 -93 c7 -12
-12 -24 -25 -16 -11 7 -4 25 10 25 5 0 11 -4 15 -9z m1826 -6 c-1 -15 -24 -12
-29 3 -3 9 2 13 12 10 10 -1 17 -7 17 -13z m-36 -83 c-22 -20 -202 -186 -400
-367 -342 -314 -475 -438 -429 -402 28 23 31 22 49 -13 21 -40 20 -43 -17 -36
-49 8 -149 9 -186 1 -33 -8 -33 -7 -21 19 8 16 9 30 3 35 -5 5 -54 46 -108 90
-67 55 -105 80 -115 75 -9 -3 -25 -7 -36 -8 -11 -2 -30 -8 -43 -15 -12 -6 -22
-7 -22 -2 0 5 20 17 45 27 25 9 45 20 45 24 0 19 -16 17 -43 -6 -31 -26 -67
-29 -75 -6 -2 7 10 25 27 41 29 27 33 53 4 30 -12 -11 -18 -2 -14 24 0 4 -4 7
-10 7 -6 0 -9 -6 -6 -14 3 -8 -1 -20 -10 -28 -15 -12 -16 -10 -9 17 l7 30 -25
-30 c-31 -37 -34 -25 -5 17 l21 29 -28 30 c-30 31 -44 37 -44 17 0 -27 -21
-88 -30 -88 -6 0 -10 17 -11 38 l-1 37 -10 -34 c-7 -26 -12 -31 -19 -20 -7 11
-9 11 -9 0 0 -10 -8 -12 -29 -8 -15 3 -33 1 -39 -5 -7 -7 -15 -8 -19 -3 -5 4
-2 10 5 12 20 8 14 29 -14 41 -31 15 -30 55 1 60 19 3 19 2 1 -12 -19 -16 -14
-36 9 -36 8 0 19 -8 24 -17 8 -14 11 -7 12 32 2 39 3 42 6 15 10 -94 33 -112
33 -25 0 64 20 76 21 13 1 -44 3 -43 13 5 8 36 26 25 27 -16 1 -31 1 -31 9 -7
4 14 8 30 9 36 1 5 -35 39 -79 75 -88 71 -102 93 -37 56 23 -14 105 -58 182
-100 77 -41 194 -104 260 -139 66 -36 148 -79 182 -97 l61 -33 179 133 c98 73
228 169 288 214 184 137 447 325 454 325 3 0 -12 -17 -34 -38z m-1870 -11 c7
-12 -12 -24 -25 -16 -11 7 -4 25 10 25 5 0 11 -4 15 -9z m1986 -6 c-1 -15 -24
-12 -29 3 -3 9 2 13 12 10 10 -1 17 -7 17 -13z m-1894 -173 c55 -32 93 -75 78
-90 -3 -3 -5 -1 -5 5 0 6 -11 8 -24 6 -30 -6 -259 123 -249 140 24 43 10 47
200 -61z m1963 77 c7 -11 10 -23 7 -25 -2 -2 -53 -34 -112 -69 -128 -77 -201
-90 -147 -27 16 19 218 141 234 142 4 0 12 -9 18 -21z m-1455 -19 c0 -18 -6
-26 -22 -28 -13 -2 -23 -12 -25 -25 -2 -12 -6 2 -9 31 l-4 53 30 -3 c25 -2 30
-8 30 -28z m67 -17 c17 -47 15 -73 -3 -41 -11 19 -37 18 -49 -2 -5 -8 -11 -12
-14 -9 -8 8 28 99 39 99 6 0 18 -21 27 -47z m133 37 c-3 -5 -12 -7 -20 -3 -10
3 -15 -1 -15 -12 0 -11 5 -15 15 -11 9 3 15 0 15 -9 0 -9 -6 -12 -15 -9 -9 4
-15 0 -15 -10 0 -9 8 -16 20 -16 11 0 20 -4 20 -10 0 -5 -13 -10 -30 -10 -29
0 -30 2 -30 43 0 32 -4 44 -15 44 -11 0 -15 -12 -15 -44 0 -23 -4 -43 -10 -43
-5 0 -10 20 -10 45 0 35 -3 43 -15 39 -8 -4 -15 -1 -15 5 0 7 26 11 71 11 42
0 68 -4 64 -10z m29 -5 c-4 -8 -2 -15 4 -15 5 0 12 7 16 15 3 8 13 15 22 15
16 0 16 -2 1 -17 -13 -16 -14 -21 -2 -43 17 -29 18 -40 7 -40 -5 0 -14 12 -20
26 -14 28 -36 23 -27 -7 4 -11 2 -19 -4 -19 -6 0 -11 21 -11 50 0 28 4 50 10
50 5 0 7 -7 4 -15z m154 -13 c3 -17 -2 -25 -17 -29 -12 -3 -21 -14 -21 -24 0
-11 -6 -19 -12 -19 -9 0 -14 18 -15 51 l-2 50 32 -3 c25 -2 33 -8 35 -26z m32
7 c0 -14 5 -19 18 -17 10 2 16 11 14 21 -2 9 2 17 8 17 5 0 10 -18 10 -40 0
-22 0 -43 1 -47 0 -4 -4 -9 -10 -11 -6 -2 -10 6 -9 18 2 15 -3 24 -14 25 -13
2 -18 -4 -18 -21 0 -13 -4 -24 -10 -24 -5 0 -10 23 -10 50 0 28 5 50 10 50 6
0 10 -9 10 -21z m90 -29 c0 -27 -4 -50 -10 -50 -5 0 -10 23 -10 50 0 28 5 50
10 50 6 0 10 -22 10 -50z m30 10 c0 -33 3 -40 20 -40 17 0 20 7 20 40 0 22 5
40 10 40 6 0 10 -22 10 -48 l0 -48 -40 -2 -40 -3 0 51 c0 27 5 50 10 50 6 0
10 -18 10 -40z m138 13 c3 -17 -3 -24 -23 -29 -16 -4 -24 -12 -21 -20 3 -7 1
-16 -3 -19 -5 -3 -11 18 -13 45 l-3 51 30 -3 c22 -2 31 -9 33 -25z m77 2 c0
-11 -10 -24 -22 -30 -13 -5 -23 -18 -23 -27 0 -10 -4 -18 -10 -18 -5 0 -10 23
-10 51 l0 50 33 -3 c24 -2 32 -8 32 -23z m65 15 c0 -5 -6 -7 -14 -4 -8 3 -17
0 -21 -6 -4 -7 2 -14 16 -17 l23 -6 -22 -8 c-28 -10 -29 -29 -2 -29 11 0 20
-4 20 -10 0 -5 -11 -10 -25 -10 -23 0 -25 3 -25 50 0 47 2 50 25 50 14 0 25
-4 25 -10z m-1545 -119 c7 -12 -12 -24 -25 -16 -11 7 -4 25 10 25 5 0 11 -4
15 -9z m2245 -7 c0 -17 -22 -14 -28 4 -2 7 3 12 12 12 9 0 16 -7 16 -16z
m-1243 -11 c3 -7 -4 -9 -16 -6 -16 4 -21 1 -21 -16 0 -14 6 -21 18 -20 10 0
12 3 5 6 -21 8 -14 25 7 18 16 -5 20 -2 20 15 0 18 5 21 30 18 16 -2 37 -13
46 -23 13 -16 15 -17 10 -3 -3 10 -1 20 4 23 6 4 10 -9 10 -29 0 -39 -13 -47
-29 -18 -10 16 -10 15 -11 -3 0 -23 -35 -31 -56 -14 -8 7 -14 7 -19 -1 -9 -14
-21 -13 -39 6 -20 20 -20 29 0 49 17 17 35 16 41 -2z m179 -9 l7 -27 11 24
c11 24 66 40 66 19 0 -5 -8 -10 -17 -11 -16 0 -15 -1 2 -8 19 -8 19 -8 0 -19
-18 -10 -18 -11 -2 -12 9 0 17 -4 17 -9 0 -5 -9 -7 -20 -4 -13 4 -20 14 -21
32 l0 26 -12 -25 c-16 -36 -17 -37 -32 -17 -11 15 -17 17 -32 8 -17 -10 -17
-10 0 -11 9 0 17 -4 17 -10 0 -5 -9 -10 -20 -10 -17 0 -20 7 -20 40 0 36 3 40
25 40 18 0 26 -7 31 -26z m-1228 -96 c-6 -18 -28 -21 -28 -4 0 9 7 16 16 16 9
0 14 -5 12 -12z m2340 -6 c2 -7 -3 -12 -12 -12 -9 0 -16 7 -16 16 0 17 22 14
28 -4z m-594 -28 c17 -44 0 -135 -19 -104 -3 5 -1 10 6 10 12 0 8 57 -6 93 -4
9 -3 17 3 17 5 0 13 -7 16 -16z m66 -39 c7 -30 10 -58 7 -62 -4 -3 -7 1 -7 10
0 22 -26 22 -40 0 -8 -14 -9 -8 -5 27 14 98 26 105 45 25z m57 18 l10 -38 2
33 c0 17 5 32 10 32 5 0 6 -21 4 -47 -7 -74 -14 -83 -29 -38 -11 34 -13 36
-13 13 -1 -33 -21 -48 -21 -16 0 38 12 98 20 98 3 0 11 -17 17 -37z m-1582
-53 c-4 -6 7 -28 24 -49 26 -32 28 -40 15 -45 -8 -3 -30 1 -47 10 l-32 15 24
-19 c19 -16 21 -20 8 -25 -16 -6 -75 59 -63 70 3 3 26 -7 51 -22 26 -15 48
-25 50 -23 9 9 -49 69 -61 64 -20 -8 -17 11 4 23 22 13 35 14 27 1z m-323 -15
c0 -5 -5 -11 -11 -13 -6 -2 -11 4 -11 13 0 9 5 15 11 13 6 -2 11 -8 11 -13z
m418 5 c0 -5 -2 -10 -4 -10 -3 0 -8 5 -11 10 -3 6 -1 10 4 10 6 0 11 -4 11
-10z m270 6 c0 -3 -4 -8 -10 -11 -5 -3 -10 -1 -10 4 0 6 5 11 10 11 6 0 10 -2
10 -4z m1010 0 c0 -3 -4 -8 -10 -11 -5 -3 -10 -1 -10 4 0 6 5 11 10 11 6 0 10
-2 10 -4z m310 -6 c0 -5 -4 -10 -10 -10 -5 0 -10 5 -10 10 0 6 5 10 10 10 6 0
10 -4 10 -10z m80 -26 c-18 -20 -6 -28 20 -14 29 16 37 5 15 -20 -19 -21 -41
-28 -29 -9 4 7 -1 7 -16 -1 -28 -15 -35 -8 -20 22 11 20 9 20 -19 -6 -17 -17
-31 -25 -31 -19 0 17 84 86 88 73 2 -6 -2 -17 -8 -26z m324 21 c4 -10 -1 -15
-14 -15 -20 0 -26 11 -13 23 10 11 20 8 27 -8z m-780 -36 c21 -22 36 -42 33
-45 -2 -2 -30 6 -62 18 -32 12 -53 24 -47 26 5 1 27 -4 49 -13 l38 -16 -34 35
c-19 20 -30 36 -25 36 6 0 28 -18 48 -41z m213 -96 c-2 -21 -4 -4 -4 37 0 41
2 58 4 38 2 -21 2 -55 0 -75z m-1112 57 c-10 -11 -20 -18 -23 -15 -3 3 3 14
13 25 10 11 20 18 23 15 3 -3 -3 -14 -13 -25z m-225 -30 c0 -27 -4 -50 -8 -50
-4 0 -6 16 -4 35 4 31 2 34 -14 28 -18 -6 -18 -6 0 15 11 12 21 22 23 22 1 0
3 -22 3 -50z m84 27 c9 -15 6 -23 -17 -43 l-28 -24 27 0 c21 0 25 -3 17 -11
-13 -13 -63 -4 -63 11 0 5 11 17 25 26 27 17 34 44 12 44 -7 0 -18 -5 -25 -12
-7 -7 -12 -8 -12 -2 0 16 23 35 39 32 7 -2 19 -11 25 -21z m1005 -2 c35 -17
45 -39 26 -55 -29 -24 -114 21 -102 53 8 21 39 22 76 2z m-1322 -32 c51 2 61
-9 38 -38 -15 -20 -16 -20 -13 0 3 17 -4 21 -37 23 -47 4 -61 14 -50 39 8 16
9 16 12 -4 4 -20 10 -22 50 -20z m1798 17 c-10 -11 -16 -20 -14 -20 2 0 29 7
59 15 30 8 57 15 60 15 2 0 -16 -20 -40 -45 l-44 -45 48 16 c40 14 50 14 57 3
11 -18 -8 -39 -35 -39 -11 0 -30 -7 -40 -15 -33 -25 -43 -16 -11 10 l30 25
-32 -6 c-32 -6 -46 7 -23 21 17 11 11 25 -15 35 -28 11 -31 20 -13 38 20 20
32 13 13 -8z m-1698 -22 c17 -13 49 -37 70 -55 28 -22 43 -29 54 -22 23 15 55
10 83 -12 23 -18 27 -28 25 -68 -2 -25 -7 -49 -12 -53 -7 -4 -4 -16 6 -32 18
-27 48 -108 43 -114 -2 -1 -13 12 -26 30 -12 18 -20 26 -17 17 7 -20 -12 -50
-20 -31 -2 6 -13 12 -24 12 -24 0 -24 11 2 44 28 36 18 70 -20 63 -33 -7 -44
0 -65 40 -19 38 -21 60 -4 65 6 2 8 10 4 17 -5 7 -15 10 -23 7 -8 -3 -12 -2
-8 3 3 5 -17 25 -44 45 -52 38 -79 66 -64 66 5 0 23 -10 40 -22z m1373 -18 c0
-17 5 -30 13 -30 8 0 9 -3 1 -8 -6 -4 -14 -14 -17 -22 -4 -12 -6 -12 -6 2 -1
10 -11 18 -26 20 l-25 3 22 32 c29 41 38 41 38 3z m226 -5 c-7 -40 -8 -39 30
-21 16 8 43 17 59 21 17 3 -15 -18 -70 -47 -104 -55 -123 -79 -94 -114 16 -20
2 -32 -41 -36 -31 -3 -35 -7 -42 -41 -7 -35 -44 -117 -52 -117 -6 0 23 120 33
138 7 12 -4 47 -27 82 -2 3 -40 8 -85 11 l-82 6 83 1 c64 2 82 5 82 17 0 22
41 55 69 55 13 0 32 -7 42 -16 16 -14 20 -14 48 1 22 11 31 23 31 40 0 14 -5
25 -11 25 -8 0 -8 5 1 15 21 25 32 17 26 -20z m-1991 16 c7 -12 -12 -24 -25
-16 -11 7 -4 25 10 25 5 0 11 -4 15 -9z m2446 -6 c-1 -15 -24 -12 -29 3 -3 9
2 13 12 10 10 -1 17 -7 17 -13z m-1607 -17 c-5 -8 -2 -9 12 -4 49 21 53 13 6
-10 -58 -28 -82 -24 -43 7 27 22 35 24 25 7z m757 -5 c35 -7 38 -23 5 -23 -14
0 -28 -4 -31 -10 -3 -5 3 -10 14 -10 11 0 23 -5 27 -11 7 -12 -40 -5 -86 13
-25 10 -24 11 15 23 24 8 32 13 20 14 -11 1 -27 6 -35 12 -11 8 -8 9 14 4 15
-3 41 -9 57 -12z m-1331 -43 c0 -5 -4 -10 -10 -10 -5 0 -10 5 -10 10 0 6 5 10
10 10 6 0 10 -4 10 -10z m600 -4 c0 -3 -4 -8 -10 -11 -5 -3 -10 -1 -10 4 0 6
5 11 10 11 6 0 10 -2 10 -4z m-432 -36 c5 -13 3 -13 -12 -1 -15 12 -19 12 -34
-4 -16 -17 -16 -17 1 -12 41 15 67 -34 33 -62 -26 -22 -56 4 -56 48 0 21 3 41
7 45 12 12 56 2 61 -14z m242 -30 c0 -27 -4 -50 -9 -50 -5 0 -8 16 -7 35 2 19
-1 35 -7 35 -5 0 -4 7 3 15 18 22 20 20 20 -35z m87 5 c3 -44 -17 -68 -45 -58
-24 9 -32 25 -22 44 5 9 7 19 3 22 -14 15 8 38 34 35 25 -3 28 -7 30 -43z
m-636 19 c20 -24 -5 -34 -88 -34 -71 0 -73 1 -73 25 0 24 2 25 74 25 55 0 77
-4 87 -16z m2329 -11 l0 -28 -77 3 c-43 2 -81 9 -85 15 -13 21 27 36 95 37 67
0 67 0 67 -27z m-1630 -8 c0 -21 30 -19 30 3 1 16 1 16 14 0 16 -22 36 -23 36
-3 0 8 5 15 10 15 6 0 10 -9 10 -20 0 -18 -7 -20 -60 -20 -53 0 -60 2 -60 20
0 11 5 20 10 20 6 0 10 -7 10 -15z m1105 -15 c-4 -12 -9 -19 -12 -17 -3 3 -2
15 2 27 4 12 9 19 12 17 3 -3 2 -15 -2 -27z m161 12 c-5 -8 -135 -6 -144 3 -3
3 29 5 72 5 42 0 75 -4 72 -8z m94 -2 c0 -5 -4 -10 -10 -10 -5 0 -10 5 -10 10
0 6 5 10 10 10 6 0 10 -4 10 -10z m-1877 -37 c7 -39 -5 -56 -34 -49 -9 2 -27
-5 -40 -15 -29 -23 -11 -24 38 -4 40 17 62 20 48 6 -6 -4 -31 -15 -57 -24 -43
-14 -47 -14 -53 1 -4 10 3 23 17 35 l23 19 -27 -5 c-16 -2 -28 -1 -28 4 0 4
17 10 38 14 53 9 70 21 54 37 -11 11 -16 9 -28 -6 -8 -11 -14 -14 -14 -8 0 7
-14 12 -31 12 -17 0 -28 4 -24 10 3 6 30 10 59 10 l53 0 6 -37z m585 -15 c15
-5 22 -14 20 -26 -3 -13 -14 -17 -53 -18 -73 -1 -75 -3 -22 -30 61 -31 56 -41
-6 -15 -31 14 -47 16 -50 8 -2 -7 -5 -8 -10 -1 -3 6 2 20 13 31 10 12 16 24
12 28 -7 7 4 6 72 -11 22 -5 28 -4 24 7 -3 8 -23 18 -46 23 -23 5 -42 13 -42
17 0 9 49 2 88 -13z m1302 -46 l25 -12 -25 5 c-14 2 -43 5 -65 6 -38 1 -38 2
-10 8 30 7 30 7 8 19 -13 7 -23 17 -23 23 0 6 14 0 32 -13 18 -13 44 -29 58
-36z m-581 24 c8 -10 9 -16 1 -21 -5 -3 -10 -1 -10 4 0 19 -28 12 -33 -9 -7
-26 -33 -36 -52 -20 -17 14 -20 40 -5 40 6 0 10 -7 10 -15 0 -24 26 -17 38 10
13 28 34 32 51 11z m156 -11 c1 -11 4 -26 9 -33 4 -7 2 -19 -4 -27 -14 -17
-56 -20 -65 -4 -11 16 3 23 19 10 15 -13 36 -7 36 10 0 5 -7 9 -15 9 -18 0
-20 17 -3 22 6 2 8 10 4 17 -6 9 -11 9 -22 0 -8 -6 -18 -9 -21 -5 -11 10 19
27 42 24 12 -2 20 -11 20 -23z m219 19 c22 -9 20 -37 -5 -60 l-21 -19 24 -6
c19 -5 17 -6 -14 -10 -45 -6 -51 12 -13 37 14 9 25 23 25 30 0 17 -27 19 -33
2 -2 -7 -8 -10 -12 -6 -8 8 12 38 25 38 5 0 15 -3 24 -6z m-127 -126 c-2 -24
-4 -7 -4 37 0 44 2 63 4 43 2 -21 2 -57 0 -80z m-714 81 l15 -21 7 21 c3 12
10 21 15 21 11 0 18 -150 8 -157 -7 -4 -13 62 -9 95 1 6 -5 12 -14 12 -17 0
-19 -9 -6 -43 14 -37 3 -69 -23 -65 -12 2 -22 12 -24 23 -3 16 -1 18 9 8 19
-18 29 -16 29 7 0 10 -8 23 -17 29 -14 7 -15 12 -5 24 7 8 9 22 6 32 -7 17 -8
17 -21 -1 -12 -17 -13 -17 -13 2 0 39 21 45 43 13z m121 -63 c-4 -42 -11 -76
-16 -76 -6 0 -7 23 -3 55 5 38 4 55 -4 55 -7 0 -5 9 5 25 9 14 19 24 21 21 2
-2 1 -38 -3 -80z m-1274 53 c0 -5 -4 -9 -10 -9 -5 0 -10 7 -10 16 0 8 5 12 10
9 6 -3 10 -10 10 -16z m550 6 c13 -16 6 -33 -24 -55 -21 -14 -20 -15 9 -21 26
-6 24 -7 -14 -8 l-45 -1 34 35 c35 36 34 59 0 37 -16 -10 -20 -10 -20 2 0 26
41 34 60 11z m1095 -23 c-3 -4 -9 -1 -13 5 -5 7 -13 9 -21 4 -7 -5 -11 -14 -7
-19 4 -7 -4 -10 -21 -9 -22 2 -27 -2 -25 -15 4 -23 -14 -23 -22 -2 -8 20 -12
16 49 47 43 21 51 23 58 10 5 -8 6 -17 2 -21z m813 20 c2 -7 -6 -12 -17 -12
-21 0 -27 11 -14 24 9 9 26 2 31 -12z m-304 -4 c44 -12 78 -35 39 -25 -24 5
-33 -16 -13 -28 6 -4 5 -11 -3 -19 -10 -11 -17 -10 -42 7 -16 11 -24 14 -17 7
19 -21 14 -32 -10 -25 l-23 6 23 -20 c24 -21 30 -37 8 -24 -30 18 -78 64 -72
70 3 3 17 1 31 -5 29 -14 31 -10 9 23 -22 34 -6 31 36 -5 19 -16 40 -29 45
-30 6 0 -10 18 -35 40 -48 41 -43 47 24 28z m-1116 -68 c24 -36 28 -97 5 -92
-7 1 -22 -7 -33 -18 -31 -31 -40 -24 -40 29 0 54 -25 92 -32 49 -4 -21 -5 -21
-13 -5 -12 28 10 45 36 29 19 -12 20 -11 14 7 -16 52 28 53 63 1z m441 -22
c-16 -51 -51 -94 -67 -84 -15 9 -16 43 -2 51 6 3 10 -4 10 -16 0 -18 2 -20 16
-8 8 7 13 20 11 30 -3 9 4 24 14 33 11 9 19 21 19 27 0 8 -4 8 -15 -1 -18 -15
-20 1 -3 18 23 23 32 -5 17 -50z m197 47 c9 -23 -16 -47 -43 -42 -13 2 -28 -2
-34 -9 -6 -8 -17 -14 -23 -14 -13 1 72 80 86 80 5 0 11 -7 14 -15z m-1268 -28
c15 -16 18 -27 12 -37 -14 -21 -12 -30 4 -30 8 0 16 7 20 15 3 8 13 15 22 15
13 0 15 -6 9 -32 -11 -52 -11 -71 2 -75 8 -3 17 13 24 41 6 26 16 49 22 53 6
4 8 -4 3 -23 -13 -58 -28 -84 -48 -84 -26 0 -33 26 -21 71 13 48 2 43 -22 -11
-10 -22 -22 -40 -27 -40 -11 0 -10 14 3 27 12 12 4 33 -11 33 -5 0 -12 -9 -15
-20 -3 -11 -11 -20 -16 -20 -5 0 2 22 16 49 14 28 21 52 16 55 -4 3 -23 -10
-41 -29 -19 -19 -38 -35 -44 -35 -6 0 6 17 26 38 19 20 33 43 31 50 -7 20 12
14 35 -11z m682 8 c0 -8 -7 -15 -15 -15 -8 0 -15 7 -15 15 0 8 7 15 15 15 8 0
15 -7 15 -15z m282 0 c0 -5 -5 -11 -11 -13 -6 -2 -11 4 -11 13 0 9 5 15 11 13
6 -2 11 -8 11 -13z m-588 -37 c34 -49 3 -91 -33 -47 -37 45 -47 69 -31 79 17
11 44 -3 64 -32z m21 32 c3 -5 1 -10 -4 -10 -6 0 -11 5 -11 10 0 6 2 10 4 10
3 0 8 -4 11 -10z m-105 -30 c0 -5 -4 -10 -10 -10 -5 0 -7 -7 -3 -16 3 -8 11
-13 19 -10 9 3 12 -4 11 -22 -2 -21 2 -26 17 -24 11 2 15 -1 11 -7 -13 -22
-35 -10 -55 30 -21 40 -21 69 0 69 5 0 10 -4 10 -10z m-675 -19 c7 -12 -12
-24 -25 -16 -11 7 -4 25 10 25 5 0 11 -4 15 -9z m644 -73 c1 -48 -10 -48 -30
0 l-16 37 5 -42 c6 -56 -8 -54 -33 4 -11 26 -21 51 -23 55 -2 4 0 8 5 8 5 0
14 -12 20 -27 l11 -28 1 33 c1 39 13 41 28 5 l11 -28 2 35 c2 33 3 33 10 10 4
-14 8 -42 9 -62z m1766 72 c3 -6 -1 -13 -10 -16 -19 -8 -30 0 -20 15 8 14 22
14 30 1z m-595 -10 c5 0 10 -21 12 -47 4 -65 22 -61 29 7 l6 55 -1 -60 c-1
-54 -3 -60 -23 -63 -23 -3 -28 6 -36 73 -3 23 -4 21 -6 -11 -1 -40 -24 -75
-38 -60 -4 4 -1 11 7 16 9 6 15 26 15 55 0 33 3 44 13 40 8 -3 18 -5 22 -5z
m80 -40 c0 -29 9 -45 30 -52 12 -5 12 -7 -3 -13 -26 -11 -34 2 -41 65 -5 38
-3 50 4 40 5 -8 10 -26 10 -40z m110 20 c0 -5 -2 -10 -4 -10 -3 0 -8 5 -11 10
-3 6 -1 10 4 10 6 0 11 -4 11 -10z m-1100 -15 c0 -8 -4 -15 -9 -15 -13 0 -22
16 -14 24 11 11 23 6 23 -9z m308 8 c-16 -2 -40 -2 -55 0 -16 2 -3 4 27 4 30
0 43 -2 28 -4z m292 -8 c0 -8 -4 -15 -10 -15 -5 0 -10 7 -10 15 0 8 5 15 10
15 6 0 10 -7 10 -15z m-638 -45 c16 -28 23 -50 17 -50 -5 0 -8 -4 -5 -9 3 -4
-3 -16 -14 -26 -18 -16 -19 -15 -40 24 -19 39 -49 59 -36 25 4 -10 1 -14 -6
-12 -20 7 -22 37 -3 44 20 8 51 -20 60 -53 l6 -26 15 21 c14 20 13 25 -9 57
-18 26 -26 32 -35 23 -17 -17 -27 -2 -12 17 20 25 33 17 62 -35z m257 46 c-2
-2 -17 -6 -34 -10 -22 -5 -26 -4 -15 4 14 9 59 15 49 6z m-584 -16 c3 -5 1
-10 -4 -10 -6 0 -11 5 -11 10 0 6 2 10 4 10 3 0 8 -4 11 -10z m1063 -29 c3 -9
-2 -11 -18 -6 -18 6 -21 4 -16 -12 8 -24 -25 -56 -51 -51 -20 4 -25 29 -5 36
7 2 10 -2 6 -12 -8 -21 10 -21 27 0 10 13 10 17 0 23 -10 6 -7 13 10 25 26 18
40 17 47 -3z m-348 -21 c0 -5 10 -10 21 -10 17 0 19 -3 10 -14 -6 -7 -9 -21
-5 -30 5 -12 2 -15 -10 -10 -9 3 -23 1 -31 -6 -12 -10 -15 -9 -15 7 0 10 -5
24 -12 31 -9 9 -8 12 5 12 9 0 17 7 17 15 0 8 5 15 10 15 6 0 10 -4 10 -10z
m-1222 -18 c2 -7 -3 -12 -12 -12 -9 0 -16 7 -16 16 0 17 22 14 28 -4z m1118 2
c-2 -6 1 -17 7 -24 9 -10 9 -11 0 -6 -6 3 -16 -2 -22 -11 -10 -17 -10 -17 -11
0 0 9 -8 17 -17 17 -14 0 -15 2 -4 9 7 5 11 13 7 19 -3 6 5 9 19 8 14 0 23 -6
21 -12z m1224 -5 c0 -5 -7 -9 -15 -9 -15 0 -20 12 -9 23 8 8 24 -1 24 -14z
m-1324 -32 c17 6 17 5 5 -10 -11 -14 -11 -20 0 -34 12 -15 12 -16 -5 -10 -12
5 -23 1 -32 -10 -12 -17 -13 -16 -14 5 0 14 -6 22 -17 22 -17 1 -17 1 0 11 9
5 17 17 17 26 0 12 3 13 14 4 7 -6 22 -8 32 -4z m-276 -22 c0 -8 -4 -15 -10
-15 -5 0 -10 7 -10 15 0 8 5 15 10 15 6 0 10 -7 10 -15z m860 0 c0 -8 -4 -15
-9 -15 -13 0 -22 16 -14 24 11 11 23 6 23 -9z m-223 -10 c22 -6 73 -59 73 -75
0 -5 -14 -2 -31 7 -28 14 -61 18 -116 14 -12 0 -38 -16 -57 -35 -20 -18 -36
-33 -36 -31 0 1 7 23 16 49 14 40 23 51 58 67 22 10 48 17 56 14 8 -2 25 -6
37 -10z m-1028 -21 c10 -10 -40 -48 -144 -109 -60 -35 -112 -62 -117 -59 -4 3
-12 14 -18 24 -9 17 3 27 107 90 90 53 124 69 143 64 14 -3 27 -8 29 -10z
m1756 -40 c150 -84 147 -81 135 -104 -6 -11 -16 -20 -23 -20 -19 0 -229 119
-244 138 -20 27 -18 31 27 41 3 0 50 -24 105 -55z m-1445 31 c0 -12 8 -14 40
-9 29 5 47 2 65 -10 29 -19 25 -36 -8 -36 -18 0 -19 2 -7 10 13 9 13 11 0 20
-24 16 -50 12 -43 -6 5 -14 2 -14 -32 0 -21 9 -39 16 -41 16 -2 0 -1 7 2 15 8
19 24 19 24 0z m521 -7 c9 -4 22 -1 28 5 28 28 18 -16 -20 -86 -8 -14 -6 -23
5 -36 24 -26 13 -84 -17 -87 -7 0 -19 -2 -28 -2 -9 -1 -43 -61 -89 -158 -41
-85 -76 -152 -77 -147 -2 5 13 45 33 88 20 43 43 100 51 128 8 28 22 61 30 74
13 19 14 29 4 50 -6 14 -9 34 -6 44 7 21 41 43 54 35 5 -3 16 12 25 34 20 50
20 61 1 36 -8 -11 -15 -16 -15 -12 0 5 -8 2 -17 -5 -15 -12 -16 -12 -10 4 3 9
2 17 -3 17 -6 0 -10 5 -10 11 0 5 5 7 10 4 6 -3 13 1 16 10 4 9 10 13 13 8 3
-5 13 -12 22 -15z m-1141 -13 c0 -8 -4 -15 -9 -15 -13 0 -22 16 -14 24 11 11
23 6 23 -9z m1656 -10 c4 -14 5 -27 3 -29 -7 -7 -159 -11 -159 -5 0 8 63 19
107 19 26 0 30 3 26 20 -3 11 0 20 6 20 6 0 13 -11 17 -25z m599 15 c3 -6 -1
-13 -10 -16 -19 -8 -30 0 -20 15 8 14 22 14 30 1z m-1575 -60 c25 -18 30 -19
30 -6 0 9 5 16 10 16 6 0 10 -11 10 -25 0 -14 -2 -25 -5 -25 -3 0 -31 14 -62
30 -31 17 -59 28 -62 25 -3 -4 1 -10 9 -15 8 -5 11 -12 7 -16 -10 -10 -48 26
-40 38 9 15 69 2 103 -22z m-33 -76 c-9 -9 -28 6 -21 18 4 6 10 6 17 -1 6 -6
8 -13 4 -17z m963 11 c0 -8 -4 -15 -9 -15 -13 0 -22 16 -14 24 11 11 23 6 23
-9z m-901 -44 c8 -5 11 -16 7 -26 -5 -14 -14 -16 -49 -12 -23 3 -52 9 -65 13
-18 5 -21 3 -16 -10 3 -9 2 -16 -4 -16 -10 0 -24 41 -16 49 2 3 29 -3 59 -13
32 -12 61 -16 72 -11 17 8 17 8 1 12 -10 3 -18 9 -18 14 0 11 11 11 29 0z
m926 -35 c40 -17 47 -46 13 -46 -19 0 -20 2 -8 10 13 9 13 11 0 20 -22 14 -27
12 -33 -11 -5 -19 -11 -21 -43 -16 -44 7 -59 20 -51 41 8 21 75 21 122 2z
m-1505 -27 c0 -5 -7 -9 -15 -9 -15 0 -20 12 -9 23 8 8 24 -1 24 -14z m1996 10
c8 -14 -18 -31 -30 -19 -9 9 0 30 14 30 5 0 12 -5 16 -11z m-1401 -9 c9 -15
-13 -40 -35 -40 -9 0 -31 -7 -48 -16 -24 -12 -36 -13 -52 -4 -21 11 -21 12 -4
31 20 22 33 17 14 -6 -10 -13 -9 -15 8 -15 11 0 28 7 36 16 9 8 20 13 25 10
11 -7 41 3 41 14 0 5 -8 11 -17 13 -14 4 -13 5 4 6 12 0 25 -4 28 -9z m-45
-85 c0 -8 -4 -15 -9 -15 -13 0 -22 16 -14 24 11 11 23 6 23 -9z m900 0 c0 -8
-4 -15 -9 -15 -13 0 -22 16 -14 24 11 11 23 6 23 -9z m-1374 -23 c-22 -5 -30
3 -21 18 5 8 11 7 22 -2 15 -12 14 -13 -1 -16z m1839 18 c3 -6 -1 -13 -10 -16
-19 -8 -30 0 -20 15 8 14 22 14 30 1z m-1278 -17 c10 -26 -34 -55 -79 -51 -34
3 -37 2 -32 -19 8 -31 -10 -29 -24 2 -14 30 -9 33 62 37 29 2 51 8 54 16 2 6
-4 12 -13 12 -9 0 -13 5 -10 10 10 16 35 12 42 -7z m780 -29 c76 -42 78 -57 3
-19 -29 15 -49 22 -45 16 11 -18 -7 -12 -21 7 -15 19 -18 32 -7 32 3 0 35 -16
70 -36z m6 -71 c16 -13 23 -23 17 -23 -7 0 -30 14 -51 31 -22 18 -39 25 -39
18 0 -19 -16 1 -25 31 l-8 24 39 -29 c22 -16 52 -39 67 -52z m-753 53 c0 -9
-122 -97 -127 -92 -4 3 -4 7 -2 9 2 2 21 16 41 31 21 15 37 31 37 34 -3 17 3
22 26 22 14 0 25 -2 25 -4z m-504 -44 c-22 -5 -30 3 -21 18 5 8 11 7 22 -2 15
-12 14 -13 -1 -16z m1658 7 c-7 -11 -34 -12 -34 -1 0 14 11 21 26 15 8 -3 11
-9 8 -14z m-1370 -34 c6 -15 -58 -125 -72 -125 -5 0 -15 6 -24 13 -14 11 -12
18 19 70 34 57 64 74 77 42z m1108 3 c8 -7 27 -34 42 -60 l26 -47 -21 -12
c-25 -13 -34 -6 -72 61 -25 45 -26 70 -3 70 7 0 19 -6 28 -12z m-300 -14 c7
-9 25 -28 39 -42 34 -35 41 -58 23 -72 -11 -10 -17 -10 -29 0 -8 7 -15 17 -15
22 0 6 7 5 15 -2 21 -17 29 -6 15 20 -7 12 -18 19 -26 16 -9 -3 -14 1 -14 13
0 10 -7 24 -15 31 -12 10 -15 9 -15 -4 0 -11 -5 -14 -12 -10 -6 4 3 -18 21
-49 18 -32 31 -62 29 -68 -2 -6 -16 12 -32 41 -21 38 -31 49 -37 39 -6 -9 -9
-1 -9 24 0 21 4 36 9 33 5 -3 11 1 15 9 7 19 22 19 38 -1z m-612 -9 c0 -8 -4
-15 -9 -15 -13 0 -22 16 -14 24 11 11 23 6 23 -9z m50 -45 c-61 -71 -81 -73
-24 -3 21 26 33 44 26 39 -6 -4 -12 -3 -12 3 0 9 20 17 48 20 8 0 -10 -26 -38
-59z m357 38 c-3 -8 -6 -5 -6 6 -1 11 2 17 5 13 3 -3 4 -12 1 -19z m285 7 c0
-5 -5 -11 -11 -13 -6 -2 -11 4 -11 13 0 9 5 15 11 13 6 -2 11 -8 11 -13z
m-562 -26 c0 -42 -51 -109 -82 -109 -19 0 -26 34 -8 45 6 3 10 -4 10 -16 0
-18 2 -20 15 -9 11 9 13 16 5 24 -17 17 -11 46 15 72 27 27 45 24 45 -7z m235
11 c3 -5 1 -10 -4 -10 -6 0 -11 5 -11 10 0 6 2 10 4 10 3 0 8 -4 11 -10z m705
-10 c0 -5 -7 -10 -15 -10 -8 0 -15 5 -15 10 0 6 7 10 15 10 8 0 15 -4 15 -10z
m-610 -35 c0 -8 -7 -15 -15 -15 -8 0 -15 -7 -15 -16 0 -8 5 -12 11 -9 19 12
49 -26 49 -62 0 -40 -26 -56 -46 -28 -17 22 -10 32 10 16 19 -16 30 3 16 29
-12 22 -30 27 -30 8 0 -20 -12 0 -20 34 -6 22 -7 8 -4 -42 3 -52 1 -69 -5 -55
-5 11 -10 37 -10 58 -1 23 -5 36 -11 32 -14 -9 -12 18 3 37 22 28 67 37 67 13z
m-150 -8 c0 -7 -9 -31 -19 -53 -11 -22 -23 -52 -26 -67 -4 -15 -11 -27 -17
-27 -11 0 -4 26 22 87 18 40 18 41 -2 46 -15 4 -23 -2 -34 -31 -29 -73 -35
-84 -41 -79 -3 4 2 25 11 48 13 31 14 44 6 49 -8 5 -4 13 11 24 28 20 89 22
89 3z m-150 -43 c0 -9 -5 -14 -12 -12 -18 6 -21 28 -4 28 9 0 16 -7 16 -16z
m380 0 c0 -17 -22 -14 -28 4 -2 7 3 12 12 12 9 0 16 -7 16 -16z m-190 -30 c0
-17 -22 -14 -28 4 -2 7 3 12 12 12 9 0 16 -7 16 -16z m-505 -5 c10 -15 -1 -23
-20 -15 -9 3 -13 10 -10 16 8 13 22 13 30 -1z m994 -10 c-16 -10 -23 -4 -14
10 3 6 11 8 17 5 6 -4 5 -9 -3 -15z m-869 -44 c0 -9 -6 -12 -15 -9 -8 4 -15
10 -15 15 0 5 7 9 15 9 8 0 15 -7 15 -15z m124 -30 c3 -9 0 -15 -9 -15 -16 0
-27 14 -18 24 10 10 21 7 27 -9z m126 -26 c0 -5 -7 -9 -15 -9 -15 0 -20 12 -9
23 8 8 24 -1 24 -14z m249 0 c-16 -10 -23 -4 -14 10 3 6 11 8 17 5 6 -4 5 -9
-3 -15z m-184 2 c5 -9 38 -7 78 5 10 3 17 0 17 -8 0 -19 -121 -19 -127 0 -5
14 23 17 32 3z m135 -7 c0 -17 -22 -14 -28 4 -2 7 3 12 12 12 9 0 16 -7 16
-16z"/>
<path d="M4189 3331 c-17 -14 -21 -23 -13 -31 12 -13 68 26 59 41 -9 14 -20
11 -46 -10z"/>
<path d="M4590 3169 c0 -5 5 -9 11 -9 6 0 9 -7 5 -15 -3 -8 -1 -15 3 -15 8 0
21 23 21 39 0 4 -9 7 -20 8 -11 1 -20 -2 -20 -8z"/>
<path d="M4196 3763 c-11 -11 -6 -23 8 -23 8 0 17 4 20 9 7 10 -19 23 -28 14z"/>
<path d="M4266 3735 c-3 -9 0 -15 9 -15 9 0 12 6 9 15 -4 8 -7 15 -9 15 -2 0
-5 -7 -9 -15z"/>
<path d="M4570 3750 c0 -5 7 -10 15 -10 8 0 15 5 15 10 0 6 -7 10 -15 10 -8 0
-15 -4 -15 -10z"/>
<path d="M4865 3759 c-10 -15 1 -23 20 -15 9 3 13 10 10 16 -8 13 -22 13 -30
-1z"/>
<path d="M4940 3756 c0 -9 7 -16 16 -16 9 0 14 5 12 12 -6 18 -28 21 -28 4z"/>
<path d="M4550 3620 c13 -9 13 -11 0 -20 -13 -8 -12 -10 3 -10 10 0 17 8 17
20 0 12 -7 20 -17 20 -15 0 -16 -2 -3 -10z"/>
<path d="M4648 3623 c7 -3 16 -2 19 1 4 3 -2 6 -13 5 -11 0 -14 -3 -6 -6z"/>
<path d="M5240 3456 c0 -9 5 -16 10 -16 6 0 10 4 10 9 0 6 -4 13 -10 16 -5 3
-10 -1 -10 -9z"/>
<path d="M4955 3321 c-8 -13 35 -41 62 -41 32 0 29 17 -7 35 -34 17 -47 19
-55 6z"/>
<path d="M5539 3283 c-13 -16 -12 -17 4 -4 16 13 21 21 13 21 -2 0 -10 -8 -17
-17z"/>
<path d="M5580 3230 c0 -5 4 -10 9 -10 6 0 13 5 16 10 3 6 -1 10 -9 10 -9 0
-16 -4 -16 -10z"/>
<path d="M3989 3184 c16 -12 22 -23 18 -40 -2 -14 0 -27 4 -30 5 -3 9 8 9 24
0 27 -26 62 -46 62 -4 0 2 -7 15 -16z"/>
<path d="M3940 3165 c-17 -20 -5 -45 20 -45 11 0 23 7 26 15 6 15 -11 45 -26
45 -4 0 -13 -7 -20 -15z m25 -15 c3 -5 -1 -10 -9 -10 -9 0 -16 5 -16 10 0 6 4
10 9 10 6 0 13 -4 16 -10z"/>
<path d="M3900 3133 c0 -4 5 -15 10 -23 8 -13 10 -13 10 2 0 9 -4 20 -10 23
-5 3 -10 3 -10 -2z"/>
<path d="M3940 3090 c-11 -7 -7 -10 17 -10 17 0 35 5 38 10 8 13 -35 13 -55 0z"/>
<path d="M3991 2996 c-8 -9 -11 -19 -7 -23 9 -9 29 13 24 27 -2 8 -8 7 -17 -4z"/>
<path d="M5140 3255 c-10 -12 -10 -15 4 -15 9 0 16 7 16 15 0 8 -2 15 -4 15
-2 0 -9 -7 -16 -15z"/>
<path d="M5286 3186 c10 -8 21 -12 24 -10 5 6 -21 24 -34 24 -6 0 -1 -6 10
-14z"/>
<path d="M5246 3164 c-12 -31 -6 -44 19 -44 20 0 25 5 25 24 0 13 -7 27 -16
30 -21 8 -21 8 -28 -10z m29 -14 c3 -5 -1 -10 -9 -10 -9 0 -16 5 -16 10 0 6 4
10 9 10 6 0 13 -4 16 -10z"/>
<path d="M5210 3124 c0 -11 5 -25 12 -32 14 -14 74 -16 82 -3 3 5 -13 8 -36 7
-33 -1 -42 3 -44 17 -4 27 -14 34 -14 11z"/>
<path d="M3790 3120 c0 -23 25 -27 33 -6 7 16 -1 26 -20 26 -7 0 -13 -9 -13
-20z"/>
<path d="M4126 3173 c-11 -11 -6 -23 9 -23 8 0 15 4 15 9 0 13 -16 22 -24 14z"/>
<path d="M4121 3131 c-8 -5 -10 -14 -7 -20 9 -13 33 -15 40 -2 9 14 -18 31
-33 22z"/>
<path d="M3678 3073 c7 -3 16 -2 19 1 4 3 -2 6 -13 5 -11 0 -14 -3 -6 -6z"/>
<path d="M5535 3000 c3 -5 11 -10 16 -10 6 0 7 5 4 10 -3 6 -11 10 -16 10 -6
0 -7 -4 -4 -10z"/>
<path d="M4390 2964 c0 -24 25 -50 34 -36 3 6 -3 21 -14 33 -19 24 -19 24 -20
3z"/>
<path d="M4385 2889 c0 -21 0 -39 1 -39 17 0 32 15 27 28 -5 14 -3 15 8 5 19
-19 29 -16 29 8 0 16 -4 19 -16 15 -9 -4 -24 0 -33 8 -15 14 -16 11 -16 -25z"/>
<path d="M5040 2960 c-8 -5 -11 -12 -7 -16 4 -4 13 -2 19 4 15 15 7 24 -12 12z"/>
<path d="M4130 2931 c0 -6 11 -22 23 -37 30 -35 45 -16 16 20 -21 26 -39 34
-39 17z"/>
<path d="M4590 2535 c-17 -20 -5 -45 20 -45 11 0 23 7 26 15 6 15 -11 45 -26
45 -4 0 -13 -7 -20 -15z m34 -14 c4 -5 -1 -8 -9 -7 -21 3 -31 16 -12 16 9 0
18 -4 21 -9z"/>
<path d="M5037 2454 c-3 -4 -4 -11 -1 -15 7 -12 54 -11 54 1 0 6 -4 10 -9 10
-5 0 -16 2 -23 5 -8 3 -17 3 -21 -1z"/>
<path d="M4367 2153 c-11 -10 -8 -43 3 -43 9 0 30 31 30 44 0 8 -25 7 -33 -1z"/>
<path d="M5470 4327 c0 -3 21 -22 47 -43 26 -21 44 -33 40 -27 -9 14 -87 77
-87 70z"/>
<path d="M3689 4273 c-13 -16 -12 -17 4 -4 16 13 21 21 13 21 -2 0 -10 -8 -17
-17z"/>
<path d="M3458 3847 c-23 -33 -80 -149 -76 -152 2 -2 24 37 50 86 46 87 55
111 26 66z"/>
<path d="M3396 3635 c-9 -26 -7 -32 5 -12 6 10 9 21 6 23 -2 3 -7 -2 -11 -11z"/>
<path d="M3331 3494 c0 -11 3 -14 6 -6 3 7 2 16 -1 19 -3 4 -6 -2 -5 -13z"/>
<path d="M3301 3464 c0 -11 3 -14 6 -6 3 7 2 16 -1 19 -3 4 -6 -2 -5 -13z"/>
<path d="M3321 3454 c0 -11 3 -14 6 -6 3 7 2 16 -1 19 -3 4 -6 -2 -5 -13z"/>
<path d="M3292 3420 c0 -14 2 -19 5 -12 2 6 2 18 0 25 -3 6 -5 1 -5 -13z"/>
<path d="M3305 3380 c-4 -28 -5 -53 -2 -56 2 -3 7 19 11 47 4 28 5 53 3 56 -3
2 -8 -19 -12 -47z"/>
<path d="M3282 3360 c0 -14 2 -19 5 -12 2 6 2 18 0 25 -3 6 -5 1 -5 -13z"/>
<path d="M3273 3275 c0 -22 2 -30 4 -17 2 12 2 30 0 40 -3 9 -5 -1 -4 -23z"/>
<path d="M3294 3160 c0 -85 2 -120 3 -77 2 42 2 112 0 155 -1 42 -3 7 -3 -78z"/>
<path d="M6238 3213 c-73 -5 -76 -23 -4 -23 34 0 56 -5 59 -12 2 -7 4 -1 4 15
0 15 0 26 -1 25 0 -1 -27 -3 -58 -5z"/>
<path d="M6296 3144 c-3 -9 -2 -23 4 -32 7 -14 9 -10 10 16 0 35 -5 41 -14 16z"/>
<path d="M6290 3081 c0 -6 4 -12 8 -15 5 -3 9 1 9 9 0 8 -4 15 -9 15 -4 0 -8
-4 -8 -9z"/>
<path d="M3272 3050 c0 -14 2 -19 5 -12 2 6 2 18 0 25 -3 6 -5 1 -5 -13z"/>
<path d="M6290 3034 c0 -17 -6 -19 -54 -16 l-54 4 3 -44 3 -43 43 0 c34 0 45
4 47 18 3 13 -4 17 -32 17 -19 0 -38 5 -42 11 -4 8 8 10 39 8 44 -4 47 -3 53
24 3 16 3 31 0 34 -3 4 -6 -2 -6 -13z"/>
<path d="M3302 2975 c0 -16 4 -43 8 -60 11 -42 11 -1 1 50 -7 34 -9 35 -9 10z"/>
<path d="M3332 2920 c0 -14 2 -19 5 -12 2 6 2 18 0 25 -3 6 -5 1 -5 -13z"/>
<path d="M3291 2904 c0 -11 3 -14 6 -6 3 7 2 16 -1 19 -3 4 -6 -2 -5 -13z"/>
<path d="M3321 2868 c-1 -20 49 -182 54 -176 2 2 -9 46 -25 98 -16 52 -29 87
-29 78z"/>
<path d="M3356 2814 c9 -32 20 -63 25 -68 10 -11 -21 105 -32 118 -4 5 -1 -18
7 -50z"/>
<path d="M3396 2693 c27 -66 106 -217 133 -253 68 -93 153 -187 233 -256 103
-90 111 -113 11 -31 -78 64 -130 117 -198 202 -27 33 -53 59 -58 57 -4 -1 -6
2 -3 7 3 5 -12 39 -35 76 -22 37 -52 94 -66 126 -14 33 -28 58 -30 55 -2 -2 8
-29 22 -61 13 -31 22 -62 18 -68 -4 -6 -1 -7 7 -2 10 6 12 4 7 -9 -4 -11 -3
-15 4 -11 6 4 9 -1 7 -11 -2 -12 2 -18 11 -16 9 2 11 -3 7 -13 -3 -10 -2 -14
5 -10 6 4 9 -1 7 -11 -2 -12 2 -18 10 -16 8 1 12 -3 9 -10 -6 -18 32 -70 45
-61 7 4 9 0 5 -10 -4 -11 3 -23 20 -37 14 -11 22 -20 17 -20 -5 0 20 -29 55
-64 36 -36 68 -64 72 -63 4 1 8 -2 9 -8 4 -20 22 -34 38 -28 9 3 14 2 9 -2
-11 -13 23 -44 41 -38 9 4 13 2 9 -4 -4 -6 1 -17 10 -24 14 -12 16 -12 9 0 -6
9 -4 12 5 9 8 -3 14 -10 14 -16 0 -5 4 -14 9 -19 5 -5 6 -2 1 6 -5 9 -3 12 6
9 8 -3 13 -10 12 -16 -2 -6 4 -9 13 -5 9 3 14 0 12 -8 -2 -9 4 -13 16 -11 10
2 15 -1 11 -7 -4 -7 0 -8 11 -4 11 4 15 3 10 -5 -9 -15 46 -43 63 -32 10 6 7
10 -10 16 -13 4 -30 7 -38 5 -7 -1 -10 2 -7 7 3 5 -22 26 -55 47 -33 20 -58
39 -55 42 3 3 31 -11 63 -30 131 -80 326 -152 483 -179 82 -14 339 -15 408 -1
29 5 -32 8 -180 8 -240 0 -304 10 -459 68 -107 41 -291 136 -334 173 -191 166
-395 424 -369 466 4 7 3 8 -4 4 -14 -8 -35 30 -28 50 3 8 2 12 -3 9 -13 -7
-23 28 -15 51 5 16 4 16 -5 4 -7 -10 -11 -11 -11 -2 0 6 -4 12 -9 12 -6 0 -3
-17 5 -37z m175 -350 c13 -16 12 -17 -3 -4 -17 13 -22 21 -14 21 2 0 10 -8 17
-17z m84 -93 c33 -33 57 -60 54 -60 -2 0 -31 27 -64 60 -33 33 -57 60 -54 60
2 0 31 -27 64 -60z m136 -127 c13 -16 12 -17 -3 -4 -10 7 -18 15 -18 17 0 8 8
3 21 -13z"/>
<path d="M5816 2695 c-9 -26 -7 -32 5 -12 6 10 9 21 6 23 -2 3 -7 -2 -11 -11z"/>
<path d="M5796 2645 c-9 -26 -7 -32 5 -12 6 10 9 21 6 23 -2 3 -7 -2 -11 -11z"/>
<path d="M5761 2574 c-12 -20 -20 -39 -17 -41 2 -3 14 13 26 36 25 51 20 54
-9 5z"/>
<path d="M5725 2509 c-4 -6 -5 -12 -2 -15 2 -3 7 2 10 11 7 17 1 20 -8 4z"/>
<path d="M5669 2423 c-13 -16 -12 -17 4 -4 16 13 21 21 13 21 -2 0 -10 -8 -17
-17z"/>
<path d="M5606 2342 l-29 -37 34 32 c18 18 31 35 28 37 -3 3 -18 -12 -33 -32z"/>
<path d="M5455 2195 c-27 -25 -87 -70 -132 -101 -89 -60 -110 -81 -40 -40 84
50 255 186 232 186 -5 -1 -32 -21 -60 -45z"/>
<path d="M3825 2170 c10 -11 20 -20 23 -20 3 0 -3 9 -13 20 -10 11 -20 20 -23
20 -3 0 3 -9 13 -20z"/>
<path d="M5210 2020 c-9 -6 -10 -10 -3 -10 6 0 15 5 18 10 8 12 4 12 -15 0z"/>
<path d="M4050 1959 c-12 -8 -10 -9 9 -4 16 5 21 4 17 -4 -5 -7 -1 -8 9 -4 13
5 14 7 3 14 -17 11 -20 11 -38 -2z"/>
<path d="M5070 1960 c-8 -5 -10 -10 -5 -10 6 0 17 5 25 10 8 5 11 10 5 10 -5
0 -17 -5 -25 -10z"/>
<path d="M4120 1930 c-8 -5 -10 -10 -5 -10 6 0 17 5 25 10 8 5 11 10 5 10 -5
0 -17 -5 -25 -10z"/>
<path d="M4868 1903 c7 -3 16 -2 19 1 4 3 -2 6 -13 5 -11 0 -14 -3 -6 -6z"/>
<path d="M5270 1680 c-8 -5 -10 -10 -5 -10 6 0 17 5 25 10 8 5 11 10 5 10 -5
0 -17 -5 -25 -10z"/>
<path d="M3793 1640 c0 -25 2 -35 4 -22 2 12 2 32 0 45 -2 12 -4 2 -4 -23z"/>
<path d="M5220 1660 c-8 -5 -10 -10 -5 -10 6 0 17 5 25 10 8 5 11 10 5 10 -5
0 -17 -5 -25 -10z"/>
<path d="M3677 1159 c7 -7 15 -10 18 -7 3 3 -2 9 -12 12 -14 6 -15 5 -6 -5z"/>
<path d="M3718 1143 c6 -2 18 -2 25 0 6 3 1 5 -13 5 -14 0 -19 -2 -12 -5z"/>
</g>
</svg>
